<?xml version="1.0" standalone="no"?><!DOCTYPE svg PUBLIC "-//W3C//DTD SVG 1.1//EN" "http://www.w3.org/Graphics/SVG/1.1/DTD/svg11.dtd"><svg class="icon" width="25px" height="25.00px" viewBox="0 0 1024 1024" version="1.1" xmlns="http://www.w3.org/2000/svg"><path fill="#8a8a8a" d="M498.264042 77.721345c36.975413-0.608148 62.517639 5.230075 84.654234 19.217484 7.541038 5.959853 15.082076 11.798076 22.623114 17.757928 12.649483-2.797482 24.2043-8.149186 38.799858-10.703409 58.990379-10.095261 110.43972 46.462525 98.033496 107.15572-9.730372 47.192303-34.056301 90.249198-67.747714 113.60209l0.729778 1.459556c30.529041 9.608742 58.017342 32.110227 81.856753 49.624896 83.073049 61.422972 137.92802 148.996318 164.321653 267.585224 6.081482 27.123411 7.05452 55.949638 7.05452 88.668013 0 108.493645-32.596745 184.390545-114.331869 210.0544-24.690818 7.784297-60.206675 5.716593-92.438532 5.716594H333.820759c-76.991567 0-121.508018 3.40563-166.510987-29.799264-58.74712-43.543414-85.992161-155.19943-64.706973-261.86863 21.406818-107.277349 68.355862-201.905214 138.901057-259.071149 21.163559-17.14978 42.448747-34.54282 66.288158-49.016748 14.109039-7.297779 28.218078-14.717187 42.327117-22.014966-7.297779-7.784297-14.595558-15.568595-21.893336-23.474522-18.244447-23.352892-32.718375-50.233044-40.867562-83.802827-14.352298-58.74712 15.203706-96.938829 57.774083-109.953201 9.487112-2.919112 23.717781-7.05452 37.340301-4.986815 14.717187 2.310963 26.028745 8.514075 38.799858 9.973631 12.771113-13.86578 32.110227-24.934078 52.179119-31.25882 8.392446-1.581185 16.663262-3.162371 24.812448-4.865185z m-15.446966 564.239933v41.840599c-33.204894-0.608148-98.763274-11.311557-94.506235 26.272004 3.162371 27.853189 63.977194 18.974225 94.506235 18.487706-0.851408 29.191115 0.364889 46.827414 23.961041 51.81423 4.986816 1.094667 14.109039 1.337926 18.366077-0.729778 15.446965-7.541038 16.906521-27.001782 16.176743-51.084452 32.475116 0.486519 91.465495 9.852001 96.57394-18.487706 7.05452-38.799857-64.098824-28.096449-96.57394-27.73156 0.243259-13.500891 0.486519-27.001782 0.729778-40.381043 32.475116 0.608148 104.844756 9.608742 95.236013-30.529041-6.568001-27.73156-62.15275-19.825632-95.965791-19.217485v-23.352892l83.194678-91.587124c7.419408-9.608742 11.433187-23.596152 2.797482-34.786079-7.541038-9.852001-23.717781-11.433187-34.542819-3.52726-26.880152 19.704003-56.436156 55.463119-79.667419 80.153937l-1.459556-0.729778c-6.324742-7.05452-12.649483-14.230669-19.095855-21.285188-12.162965-15.203706-37.097042-48.043711-52.179118-58.138971-10.825039-7.297779-29.069486-13.257632-38.07008 0-8.514075 12.527854-2.554223 31.745338 4.986815 41.840598 22.136596 30.164153 54.246823 57.409193 76.869938 88.059865l-1.459556 24.812448c-33.569783-0.608148-103.020311-11.433187-93.776458 30.529042 5.838223 26.636893 62.03112 18.366077 93.898087 17.757928z"  /></svg>