<?xml version="1.0" standalone="no"?><!DOCTYPE svg PUBLIC "-//W3C//DTD SVG 1.1//EN" "http://www.w3.org/Graphics/SVG/1.1/DTD/svg11.dtd"><svg class="icon" width="25px" height="25.00px" viewBox="0 0 1024 1024" version="1.1" xmlns="http://www.w3.org/2000/svg"><path fill="#8a8a8a" d="M900.83328 173.17888c-11.28448-10.46528-26.112-16.24064-41.472-16.24064-1.41312 0-2.80576 0.06144-4.21888 0.14336-0.83968 0.06144-10.60864 0.63488-25.9072 0.63488-25.33376 0-74.79296-1.69984-121.6512-13.12768-60.5184-14.7456-130.37568-83.21024-150.69184-96.72704-10.19904-6.79936-21.99552-10.19904-33.792-10.19904-11.776 0-23.552 3.39968-33.77152 10.15808-2.47808 1.65888-75.59168 79.29856-147.10784 96.74752-46.83776 11.42784-97.25952 13.12768-122.55232 13.12768-15.33952 0-25.06752-0.57344-26.03008-0.63488-1.3312-0.08192-2.6624-0.14336-4.01408-0.14336-15.38048 0-30.28992 5.79584-41.59488 16.30208-12.30848 11.40736-19.31264 27.38176-19.31264 44.09344l0 151.01952c0 558.3872 368.0256 630.29248 383.63136 633.07776 3.60448 0.63488 7.168 0.96256 10.752 0.96256s7.24992-0.32768 10.752-0.96256c15.64672-2.78528 386.3552-74.69056 386.3552-633.07776l0-151.01952C920.20736 200.58112 913.16224 184.58624 900.83328 173.17888L900.83328 173.17888 900.83328 173.17888zM859.36128 368.35328c0 514.2528-336.2816 573.62432-336.2816 573.62432S189.50144 882.64704 189.50144 368.35328l0-151.04c0 0 11.53024 0.8192 30.14656 0.8192 31.90784 0 85.58592-2.33472 137.03168-14.90944 84.25472-20.50048 166.4-105.14432 166.4-105.14432s85.79072 84.64384 169.984 105.14432c51.48672 12.57472 104.2432 14.90944 136.17152 14.90944 18.57536 0 30.12608-0.8192 30.12608-0.8192L859.36128 368.35328 859.36128 368.35328 859.36128 368.35328zM712.23296 337.05984 476.54912 571.04384l-116.89984-116.06016c-14.49984-14.41792-38.07232-14.41792-52.57216 0-14.49984 14.4384-14.49984 37.7856 0 52.18304l136.37632 135.39328c1.59744 2.72384 3.56352 5.34528 5.91872 7.70048 7.4752 7.41376 17.38752 11.01824 27.19744 10.752 9.80992 0.26624 19.70176-3.35872 27.17696-10.752 2.37568-2.3552 4.34176-4.95616 5.9392-7.70048l255.13984-253.31712c14.52032-14.39744 14.52032-37.76512 0-52.18304S726.75328 322.64192 712.23296 337.05984L712.23296 337.05984 712.23296 337.05984zM712.23296 337.05984" /></svg>