<?xml version="1.0" standalone="no"?><!DOCTYPE svg PUBLIC "-//W3C//DTD SVG 1.1//EN" "http://www.w3.org/Graphics/SVG/1.1/DTD/svg11.dtd"><svg class="icon" width="25px" height="25.00px" viewBox="0 0 1024 1024" version="1.1" xmlns="http://www.w3.org/2000/svg"><path fill="#8a8a8a" d="M773.334 938.667h-517.333c-64 0-117.334-53.333-117.334-117.334v-629.333c0-64 53.333-106.667 117.334-106.667h346.667c37.333 0 53.333 0 58.667 0h10.667l213.334 213.334c0 42.667 0 48 0 58.667v464c0 64-48 117.334-112 117.334v0zM672 154.666c0 69.334 0 85.333 0 85.333 0 32 21.334 58.667 53.333 58.667h101.333l-154.667-144zM832 352c-69.334 0-106.667 0-106.667 0-64 0-106.667-42.667-106.667-106.667 0 0 0-32 0-101.333h-368c-32-5.333-58.667 21.334-58.667 53.333v629.333c0 32 26.666 58.667 58.667 58.667h522.667c32 0 58.667-26.666 58.667-58.667v-474.667zM698.667 565.333h-373.333c-10.667 0-26.666-10.667-26.666-26.666 0-16 16-26.666 26.666-26.666h368c21.334 0 32 10.667 32 26.666 0 16-10.667 26.666-26.666 26.666v0zM698.667 725.334h-373.333c-10.667 0-26.666-10.667-26.666-26.666s16-26.666 26.666-26.666h368c16 0 26.666 10.667 26.666 26.666s-5.333 26.666-21.334 26.666v0z" /></svg>