<?xml version="1.0" standalone="no"?><!DOCTYPE svg PUBLIC "-//W3C//DTD SVG 1.1//EN" "http://www.w3.org/Graphics/SVG/1.1/DTD/svg11.dtd"><svg class="icon" width="25px" height="25.00px" viewBox="0 0 1024 1024" version="1.1" xmlns="http://www.w3.org/2000/svg"><path fill="#8a8a8a" d="M216.612864 51.185664h427.358208c45.234176 0 101.214208 13.654016 130.97984 58.19392 29.765632 44.589056 33.35168 107.102208 33.35168 174.809088v27.61728h-50.941952v-27.61728c0-43.716608 1.878016-99.567616-17.369088-128.395264-19.286016-28.8256-55.416832-49.758208-84.60288-49.758208H209.59232c-28.545024 0-63.1296 19.46624-82.262016 47.058944-0.425984 0.745472-0.862208 1.439744-1.325056 2.136064v-0.026624c-19.273728 28.852224-22.796288 85.270528-22.796288 128.985088v455.645184c0 42.737664 4.114432 93.370368 22.564864 122.042368 0.475136 0.591872 0.913408 1.236992 1.376256 1.929216l-0.065536 0.075776c19.26144 28.776448 54.581248 50.659328 83.806208 50.659328h438.800384c29.095936 0 62.113792-23.504896 81.362944-52.201472l0.167936-0.258048h0.012288l0.0512 0.0512c19.222528-28.8256 26.073088-78.559232 26.073088-122.300416v-27.61728h50.941952v27.61728c0 67.577856-7.841792 123.019264-37.607424 167.610368l-25.856-30.601216 25.856 30.756864-0.540672 0.79872c-29.72672 44.099584-81.23392 64.415744-126.183424 64.415744h-427.35616c-45.154304 0-98.873344-18.925568-128.6656-63.516672l27.860992-30.035968-27.977728 30.062592c-0.565248-0.899072-1.118208-1.748992-1.644544-2.701312C57.411584 862.28992 51.2 806.15424 51.2 739.835904V284.19072c0-67.708928 5.7344-126.234624 35.487744-170.799104 0.591872-0.874496 1.196032-1.722368 1.839104-2.51904 29.622272-43.04896 83.80416-59.686912 128.086016-59.686912m27.656192 243.443712c-16.033792 0-29.044736 15.917056-29.044736 35.56352s13.012992 35.590144 29.044736 35.590144h345.892864c16.058368 0 29.069312-15.94368 29.069312-35.590144s-13.012992-35.56352-29.069312-35.56352H244.269056m-3.086336 183.478272c-16.033792 0-29.032448 16.19968-29.032448 36.179968 0 20.006912 12.998656 36.182016 29.032448 36.182016h245.989376c16.033792 0 29.044736-16.175104 29.044736-36.182016 0-19.980288-13.012992-36.179968-29.044736-36.179968H241.18272m1.55648 186.433536c-16.033792 0-29.044736 16.19968-29.044736 36.153344 0 20.00896 13.010944 36.182016 29.044736 36.182016h142.974976c16.033792 0 29.032448-16.173056 29.032448-36.182016 0-19.953664-12.998656-36.153344-29.032448-36.153344h-142.974976m339.976192-61.433856l310.536192-269.930496s42.891264-12.36992 66.433024 13.242368 8.204288 62.8736 8.204288 62.8736L657.36704 679.174144l-74.651648-76.066816m-15.85152 13.836288l74.278912 76.398592-124.923904 38.443008 50.644992-114.8416m0 0" /></svg>