<?xml version="1.0" standalone="no"?><!DOCTYPE svg PUBLIC "-//W3C//DTD SVG 1.1//EN" "http://www.w3.org/Graphics/SVG/1.1/DTD/svg11.dtd"><svg class="icon" width="25px" height="25.00px" viewBox="0 0 1024 1024" version="1.1" xmlns="http://www.w3.org/2000/svg"><path d="M512 512m-441.6 0a441.6 441.6 0 1 0 883.2 0 441.6 441.6 0 1 0-883.2 0Z" fill="#DFDFDF" /><path d="M773.12 746.24c-14.08-24.32-115.2-55.04-158.72-85.76-43.52-30.72-14.08-57.6 0-71.68 14.08-14.08 25.6-34.56 57.6-85.76s0-57.6 0-57.6c-2.56-104.96-19.2-144.64-57.6-184.32-10.24-10.24-26.88-16.64-46.08-19.2v-8.96s-134.4-11.52-171.52 28.16c-37.12 39.68-55.04 79.36-57.6 185.6 0 0-32 5.12 0 57.6 32 51.2 43.52 71.68 57.6 85.76 14.08 14.08 43.52 40.96 0 71.68-43.52 30.72-144.64 61.44-158.72 85.76-7.68 12.8-21.76 48.64-32 89.6 21.76 20.48 138.24 129.28 335.36 119.04 0 0 156.16-5.12 266.24-106.24-10.24-48.64-25.6-89.6-34.56-103.68z" fill="#FFFFFF" /></svg>