<?xml version="1.0" standalone="no"?><!DOCTYPE svg PUBLIC "-//W3C//DTD SVG 1.1//EN" "http://www.w3.org/Graphics/SVG/1.1/DTD/svg11.dtd"><svg class="icon" width="25px" height="25.00px" viewBox="0 0 1024 1024" version="1.1" xmlns="http://www.w3.org/2000/svg"><path fill="#8a8a8a" d="M649.881812 955.961394c-10.346649 0-20.428262-4.347005-27.520797-12.314467-27.884071-31.380708-67.839061-49.378617-109.664655-49.378617-41.802058 0-81.781608 17.997909-109.641119 49.378617-9.934257 11.125385-25.673729 15.204283-39.786145 10.225899-50.011021-17.58654-96.062869-43.600007-136.89381-77.31283-11.683087-9.66615-16.176424-25.502837-11.245112-39.786145 13.723559-39.833217 9.520841-83.408665-11.536754-119.598912-21.593807-37.114293-58.439994-62.739926-101.091396-70.291926-15.009855-2.671852-26.79118-14.234189-29.632901-29.099758-5.222955-27.494191-7.869225-80.201623-7.869225-107.599623 0-23.731494 1.966795-72.624041 5.828752-96.281857 2.501984-15.399735 14.646582-27.495214 30.167067-30.069853 43.282782-7.189749 80.688717-32.936133 102.597703-70.584592 22.344914-38.449707 25.746384-84.282568 9.326413-125.769448-5.732561-14.523785-1.554402-31.04097 10.420327-41.097 39.688931-33.397644 84.356246-59.435671 132.788306-77.384461 14.962783-5.538133 31.795147-0.873903 41.680285 11.585873 28.004821 35.291784 69.879534 55.549154 114.88761 55.549154 45.007053 0 86.906326-20.25737 114.88761-55.549154 9.909697-12.459776 26.79118-17.122983 41.680285-11.585873 48.456618 17.97335 93.123934 44.011376 132.811842 77.384461 11.951193 10.05603 16.151865 26.573215 10.395768 41.097-16.418948 41.48688-13.019525 87.319741 9.326413 125.769448 21.908986 37.648458 59.313897 63.394842 102.597703 70.584592 15.496949 2.574638 27.641547 14.670118 30.166043 30.069853 3.861958 23.706935 5.829775 72.599482 5.829775 96.281857 0 27.398-2.648316 80.105433-7.869225 107.599623-2.841721 14.864546-14.622022 26.476001-29.632901 29.099758-42.652426 7.577582-79.523171 33.178657-101.091396 70.291926-21.058618 36.190247-25.260314 79.765695-11.561313 119.598912 4.929266 14.305821 0.461511 30.119995-11.221576 39.786145-40.806381 33.711799-86.881766 59.72629-136.892787 77.31283C658.115334 955.304432 653.986293 955.961394 649.881812 955.961394zM512.697383 846.125847c54.116525 0 106.143459 19.989263 146.220223 55.549154 26.524097-11.124362 76.437903-49.938366 99.658767-66.86692-11.17348-52.441373-2.648316-107.33561 24.556279-154.067958 27.932166-48.043203 72.891124-83.261309 125.768425-99.318006 1.967818-15.520485 2.987031-55.913451 2.987031-71.239508 0-11.902074-0.606821-73.449849-1.772366-85.449137-53.386908-15.884782-98.759281-26.523073-127.006626-75.101465-28.92989-49.743938-36.749996-107.72242-22.564925-162.640194-21.641903-15.981996-69.661569-54.213739-94.120634-65.143673-40.903595 39.954991-95.554286 62.422701-153.726174 62.422701-58.172911 0-112.823602-22.467711-153.701614-62.422701-24.459065 10.929934-72.503291 49.161676-94.120634 65.143673 14.160511 54.917774 6.339382 112.896256-22.588461 162.640194-28.271904 48.578392-73.620741 83.942831-127.007649 99.779517-1.166569 11.998265-1.77339 48.869011-1.77339 60.771085 0 15.326057 1.020236 55.719023 2.987031 71.215972 52.877301 16.07921 97.836259 51.297316 125.792984 99.340519 27.180036 46.732347 32.741705 99.634208 21.544689 152.051021 23.2444 16.905018 76.122725 57.758472 102.645798 68.882833C406.553924 866.11511 458.556299 846.125847 512.697383 846.125847zM512.697383 712.754257c-112.556519 0-204.149587-90.889033-204.149587-202.570625 0-111.730711 91.594091-202.619744 204.149587-202.619744 112.554472 0 204.126051 90.890057 204.126051 202.619744C716.82241 621.8642 625.251855 712.754257 512.697383 712.754257zM512.622682 363.380124c-82.314751 0-149.279908 66.454528-149.279908 148.188041 0 81.684394 66.964134 148.187017 149.279908 148.187017 82.292238 0 149.257395-66.502623 149.257395-148.187017C661.881101 429.834652 594.91492 363.380124 512.622682 363.380124z" /></svg>