<?xml version="1.0" standalone="no"?><!DOCTYPE svg PUBLIC "-//W3C//DTD SVG 1.1//EN" "http://www.w3.org/Graphics/SVG/1.1/DTD/svg11.dtd"><svg class="icon" width="25px" height="25.00px" viewBox="0 0 1024 1024" version="1.1" xmlns="http://www.w3.org/2000/svg"><path fill="#8a8a8a" d="M128 960 128 64l768 0 0 896-384-167.296L128 960zM512 761.408l5.568 2.432 350.208 152.704L867.776 92.672 156.16 92.672l0 823.936L512 761.408zM676.544 690.944 512 613.248l-164.544 77.568L369.984 509.44 245.632 375.936 424.32 341.312 512 181.568l87.744 159.936 178.688 34.56-124.416 133.504L676.544 690.944zM512 581.632l130.24 61.376-17.856-143.36 98.112-105.344L581.504 367.104 512 240.384 442.624 367.04 301.568 394.24l98.048 105.344-17.792 143.296L512 581.632z"  /></svg>